<svg width="64" height="64" viewBox="0 0 64 64" fill="none" xmlns="http://www.w3.org/2000/svg">
<path d="M17.5 14.5V54.5" stroke="#23194A" stroke-linecap="square"/>
<path d="M0.5 14.5H54.5" stroke="#23194A" stroke-linecap="square"/>
<path d="M7.5 9.5C8.60457 9.5 9.5 8.60457 9.5 7.5C9.5 6.39543 8.60457 5.5 7.5 5.5C6.39543 5.5 5.5 6.39543 5.5 7.5C5.5 8.60457 6.39543 9.5 7.5 9.5Z" fill="#23194A"/>
<path d="M15.5 9.5C16.6046 9.5 17.5 8.60457 17.5 7.5C17.5 6.39543 16.6046 5.5 15.5 5.5C14.3954 5.5 13.5 6.39543 13.5 7.5C13.5 8.60457 14.3954 9.5 15.5 9.5Z" fill="#23194A"/>
<path d="M51.5 0.5H3.5C1.84315 0.5 0.5 1.84315 0.5 3.5V51.5C0.5 53.1569 1.84315 54.5 3.5 54.5H51.5C53.1569 54.5 54.5 53.1569 54.5 51.5V3.5C54.5 1.84315 53.1569 0.5 51.5 0.5Z" stroke="#23194A" stroke-linecap="square"/>
<path fill-rule="evenodd" clip-rule="evenodd" d="M47 31C42.2 34.2 35.8 35.5714 31 35.5714C31 46.7714 35.8 58.2 47 63C58.2 58.2 63 46.7714 63 35.5714C58.2 35.5714 51.8 34.2 47 31Z" fill="white" stroke="#40C004" stroke-width="2" stroke-linecap="square" stroke-linejoin="round"/>
<path fill-rule="evenodd" clip-rule="evenodd" d="M40.5 51.9688L46.8654 38L53.5 52L51.2357 51.9531L49.8423 48.7656H46.8654H44.1577L42.8752 51.9219L40.5 51.9688ZM49.0347 46.9219L46.8812 42.4844L44.997 46.9219H46.8654H46.9762H49.0347Z" fill="#40C004"/>
</svg>
