<svg width="64" height="64" viewBox="0 0 64 64" fill="none" xmlns="http://www.w3.org/2000/svg">
<path d="M6 54H48" stroke="#23194A" stroke-miterlimit="10" stroke-linecap="round" stroke-linejoin="round"/>
<path d="M6 14H30" stroke="#23194A" stroke-miterlimit="10" stroke-linecap="round" stroke-linejoin="round"/>
<path d="M39.5 3H11C9.67392 3 8.40215 3.52678 7.46447 4.46447C6.52678 5.40215 6 6.67392 6 8L6 58C6 59.3261 6.52678 60.5979 7.46447 61.5355C8.40215 62.4732 9.67392 63 11 63H43C43.6567 63.0001 44.3069 62.8709 44.9136 62.6197C45.5203 62.3685 46.0716 62.0003 46.536 61.536C47.0003 61.0716 47.3685 60.5203 47.6197 59.9136C47.8709 59.3069 48.0001 58.6567 48 58V37.5" stroke="#23194A" stroke-miterlimit="10" stroke-linecap="round" stroke-linejoin="round"/>
<path d="M60.5991 25.2099C60.0705 26.4525 59.4221 27.6405 58.6632 28.7574C57.4072 30.6355 55.6357 32.975 53.4403 32.9946C51.4892 33.0123 50.9879 31.7502 48.3409 31.7635C45.6938 31.7768 45.141 33.0177 43.1899 32.9999C40.9944 32.9804 39.3163 30.8666 38.0594 28.9885C34.5458 23.7344 34.1778 17.5702 36.3457 14.293C37.0106 13.2161 37.9276 12.3171 39.0174 11.6737C40.1073 11.0303 41.3374 10.6617 42.6015 10.5998C44.9276 10.5998 46.3898 11.8522 48.3142 11.8522C50.1808 11.8522 51.3177 10.598 54.0029 10.598C55.1153 10.6456 56.2038 10.9357 57.1924 11.4478C58.181 11.96 59.0458 12.682 59.7263 13.5632C58.6352 14.146 57.7369 15.0332 57.1408 16.117C56.5446 17.2009 56.2762 18.4345 56.3682 19.6681C56.4602 20.9016 56.9086 22.0818 57.659 23.0652C58.4093 24.0486 59.4292 24.7928 60.5947 25.2073L60.5991 25.2099Z" stroke="#40C004" stroke-width="2" stroke-miterlimit="10" stroke-linecap="round" stroke-linejoin="round"/>
<path d="M52.6634 6.03716C53.2372 5.34001 53.6663 4.53549 53.9256 3.67061C54.1848 2.80573 54.2692 1.89784 54.1736 1C52.3262 1.21866 50.6307 2.13041 49.4297 3.55103C48.8398 4.21506 48.3968 4.99613 48.1295 5.84315C47.8622 6.69018 47.7767 7.58409 47.8787 8.46642C48.8072 8.44551 49.7192 8.21637 50.5473 7.79592C51.3754 7.37547 52.0986 6.77443 52.6634 6.03716V6.03716Z" stroke="#40C004" stroke-width="2" stroke-miterlimit="10" stroke-linecap="round" stroke-linejoin="round"/>
</svg>
