<svg width="34" height="21" viewBox="0 0 34 21" fill="none" xmlns="http://www.w3.org/2000/svg">
<path d="M29.2417 15.1283V11.0933H33.2783V8.06833H29.2417V4.03333H26.2167V8.06833H22.1817V11.0933H26.2167V15.1283H29.2417ZM10.0867 3.92333C11.975 3.92333 13.2467 4.73 13.97 5.41667L16.84 2.63333C15.0933 1 12.815 4.60766e-07 10.0867 4.60766e-07C4.52333 -0.00166621 0 4.51833 0 10.0867C0 15.655 4.52333 20.175 10.0867 20.175C15.9083 20.175 19.7733 16.08 19.7733 10.32C19.7733 9.48167 19.6667 8.88667 19.5183 8.25333H10.0817V12.0133H15.635C15.3717 13.5983 13.95 16.2733 10.0867 16.2733C6.74833 16.2733 4.025 13.4983 4.025 10.1C4.025 6.69667 6.74833 3.92333 10.0867 3.92333Z" fill="white"/>
</svg>
