<svg width="21" height="25" viewBox="0 0 21 25" fill="none" xmlns="http://www.w3.org/2000/svg">
    <path d="M19.5684 10.0431C19.5684 17.0766 10.2842 23.1053 10.2842 23.1053C10.2842 23.1053 1 17.0766 1 10.0431C1 7.64469 1.97815 5.34455 3.71928 3.64865C5.46041 1.95275 7.82188 1 10.2842 1C12.7465 1 15.108 1.95275 16.8491 3.64865C18.5903 5.34455 19.5684 7.64469 19.5684 10.0431Z" stroke="#273283" stroke-width="2" stroke-linecap="round" stroke-linejoin="round"/>
    <path d="M10.2842 13.3789C11.9934 13.3789 13.3789 11.9934 13.3789 10.2842C13.3789 8.57501 11.9934 7.18945 10.2842 7.18945C8.57501 7.18945 7.18945 8.57501 7.18945 10.2842C7.18945 11.9934 8.57501 13.3789 10.2842 13.3789Z" stroke="#273283" stroke-width="2" stroke-linecap="round" stroke-linejoin="round"/>
</svg>
