<svg width="30" height="31" viewBox="0 0 30 31" fill="none" xmlns="http://www.w3.org/2000/svg">
<path d="M20.0407 4.42773H9.95905C6.53538 4.42773 3.75 7.21325 3.75 10.6369V20.7185C3.75 24.1424 6.53538 26.9277 9.95905 26.9277H20.0407C23.4646 26.9277 26.25 24.1422 26.25 20.7185V10.6369C26.2501 7.21325 23.4646 4.42773 20.0407 4.42773ZM24.2538 20.7185C24.2538 23.0416 22.3639 24.9314 20.0408 24.9314H9.95905C7.63615 24.9316 5.74631 23.0416 5.74631 20.7185V10.6369C5.74631 8.31402 7.63615 6.42404 9.95905 6.42404H20.0407C22.3637 6.42404 24.2537 8.31402 24.2537 10.6369L24.2538 20.7185Z" fill="#36A1A5"/>
<path d="M15 9.88031C11.8031 9.88031 9.20227 12.4811 9.20227 15.678C9.20227 18.8747 11.8031 21.4754 15 21.4754C18.1968 21.4754 20.7976 18.8747 20.7976 15.678C20.7976 12.4811 18.1968 9.88031 15 9.88031ZM15 19.479C12.904 19.479 11.1986 17.7738 11.1986 15.6779C11.1986 13.5817 12.9038 11.8765 15 11.8765C17.0961 11.8765 18.8013 13.5817 18.8013 15.6779C18.8013 17.7738 17.0959 19.479 15 19.479Z" fill="#36A1A5"/>
<path d="M21.0408 8.1875C20.6562 8.1875 20.2784 8.34321 20.0067 8.61604C19.7338 8.88754 19.5769 9.26551 19.5769 9.65146C19.5769 10.0362 19.7339 10.414 20.0067 10.6869C20.2782 10.9584 20.6562 11.1154 21.0408 11.1154C21.4268 11.1154 21.8034 10.9584 22.0763 10.6869C22.3491 10.414 22.5048 10.0361 22.5048 9.65146C22.5048 9.26551 22.3491 8.88754 22.0763 8.61604C21.8048 8.34321 21.4268 8.1875 21.0408 8.1875Z" fill="#36A1A5"/>
</svg>
