<svg width="30" height="31" viewBox="0 0 30 31" fill="none" xmlns="http://www.w3.org/2000/svg">
<path d="M28.075 8.17773C27.1125 8.61523 26.075 8.90273 25 9.04023C26.1 8.37773 26.95 7.32773 27.35 6.06523C26.3125 6.69023 25.1625 7.12773 23.95 7.37773C22.9625 6.30273 21.575 5.67773 20 5.67773C17.0625 5.67773 14.6625 8.07773 14.6625 11.0402C14.6625 11.4652 14.7125 11.8777 14.8 12.2652C10.35 12.0402 6.38749 9.90273 3.74999 6.66523C3.28749 7.45273 3.02499 8.37773 3.02499 9.35273C3.02499 11.2152 3.96249 12.8652 5.41249 13.8027C4.52499 13.8027 3.69999 13.5527 2.97499 13.1777C2.97499 13.1777 2.97499 13.1777 2.97499 13.2152C2.97499 15.8152 4.82499 17.9902 7.27499 18.4777C6.82499 18.6027 6.34999 18.6652 5.86249 18.6652C5.52499 18.6652 5.18749 18.6277 4.86249 18.5652C5.53749 20.6777 7.49999 22.2527 9.86249 22.2902C8.03749 23.7402 5.72499 24.5902 3.19999 24.5902C2.77499 24.5902 2.34999 24.5652 1.92499 24.5152C4.29999 26.0402 7.12499 26.9277 10.15 26.9277C20 26.9277 25.4125 18.7527 25.4125 11.6652C25.4125 11.4277 25.4125 11.2027 25.4 10.9652C26.45 10.2152 27.35 9.26523 28.075 8.17773Z" fill="#36A1A5"/>
</svg>
