<svg width="28" height="20" viewBox="0 0 28 20" fill="none" xmlns="http://www.w3.org/2000/svg">
<path d="M27.5777 9.91382C27.5777 9.84611 27.5777 9.76916 27.5746 9.6799C27.5716 9.43059 27.5654 9.15051 27.5592 8.85195C27.5346 7.99323 27.4915 7.13758 27.4238 6.33118C27.3315 5.22007 27.1961 4.29363 27.0114 3.59803C26.8165 2.87211 26.4345 2.21006 25.9036 1.67804C25.3726 1.14603 24.7114 0.762684 23.9858 0.566328C23.1148 0.33241 21.4097 0.18775 19.0089 0.0984917C17.867 0.0554016 16.6451 0.0277006 15.4232 0.0123113C14.9954 0.00615555 14.5983 0.00307787 14.2413 0H13.3364C12.9794 0.00307787 12.5823 0.00615555 12.1545 0.0123113C10.9326 0.0277006 9.71068 0.0554016 8.56879 0.0984917C6.16805 0.190828 4.45983 0.335488 3.59187 0.566328C2.86612 0.762202 2.20458 1.14538 1.67357 1.67747C1.14256 2.20957 0.760727 2.87187 0.566328 3.59803C0.378578 4.29363 0.24623 5.22007 0.153894 6.33118C0.0861804 7.13758 0.0430901 7.99323 0.0184672 8.85195C0.00923356 9.15051 0.00615569 9.43059 0.00307782 9.6799C0.00307782 9.76916 0 9.84611 0 9.91382V10.0862C0 10.1539 -4.70104e-08 10.2308 0.00307782 10.3201C0.00615569 10.5694 0.0123114 10.8495 0.0184672 11.148C0.0430901 12.0068 0.0861804 12.8624 0.153894 13.6688C0.24623 14.7799 0.381656 15.7064 0.566328 16.402C0.960296 17.8763 2.11757 19.0397 3.59187 19.4337C4.45983 19.6676 6.16805 19.8122 8.56879 19.9015C9.71068 19.9446 10.9326 19.9723 12.1545 19.9877C12.5823 19.9938 12.9794 19.9969 13.3364 20H14.2413C14.5983 19.9969 14.9954 19.9938 15.4232 19.9877C16.6451 19.9723 17.867 19.9446 19.0089 19.9015C21.4097 19.8092 23.1179 19.6645 23.9858 19.4337C25.4601 19.0397 26.6174 17.8793 27.0114 16.402C27.1991 15.7064 27.3315 14.7799 27.4238 13.6688C27.4915 12.8624 27.5346 12.0068 27.5592 11.148C27.5685 10.8495 27.5716 10.5694 27.5746 10.3201C27.5746 10.2308 27.5777 10.1539 27.5777 10.0862V9.91382V9.91382ZM25.3616 10.0739C25.3616 10.1385 25.3616 10.2093 25.3586 10.2924C25.3555 10.5325 25.3493 10.7972 25.3432 11.0834C25.3216 11.9021 25.2785 12.7208 25.2139 13.4811C25.1308 14.4721 25.0138 15.2847 24.8692 15.8295C24.6784 16.5405 24.1182 17.1037 23.4103 17.2915C22.7639 17.4638 21.1357 17.6023 18.9227 17.6854C17.8024 17.7285 16.5959 17.7562 15.3924 17.7716C14.9708 17.7778 14.5799 17.7809 14.229 17.7809H13.3487L12.1853 17.7716C10.9818 17.7562 9.77839 17.7285 8.65497 17.6854C6.44198 17.5993 4.81071 17.4638 4.16744 17.2915C3.45953 17.1006 2.89935 16.5405 2.70853 15.8295C2.56387 15.2847 2.44691 14.4721 2.3638 13.4811C2.29917 12.7208 2.25916 11.9021 2.23453 11.0834C2.2253 10.7972 2.22222 10.5294 2.21914 10.2924C2.21914 10.2093 2.21607 10.1354 2.21607 10.0739V9.92613C2.21607 9.8615 2.21607 9.7907 2.21914 9.7076C2.22222 9.46753 2.22838 9.20283 2.23453 8.91659C2.25608 8.09788 2.29917 7.27916 2.3638 6.51893C2.44691 5.52785 2.56387 4.7153 2.70853 4.17051C2.89935 3.45953 3.45953 2.89628 4.16744 2.70853C4.81379 2.53616 6.44198 2.39766 8.65497 2.31456C9.77532 2.27147 10.9818 2.24377 12.1853 2.22838C12.607 2.22222 12.9978 2.21914 13.3487 2.21914H14.229L15.3924 2.22838C16.5959 2.24377 17.7993 2.27147 18.9227 2.31456C21.1357 2.40074 22.767 2.53616 23.4103 2.70853C24.1182 2.89935 24.6784 3.45953 24.8692 4.17051C25.0138 4.7153 25.1308 5.52785 25.2139 6.51893C25.2785 7.27916 25.3186 8.09788 25.3432 8.91659C25.3524 9.20283 25.3555 9.47061 25.3586 9.7076C25.3586 9.7907 25.3616 9.86457 25.3616 9.92613V10.0739ZM11.0496 14.1243L18.1902 9.96922L11.0496 5.87565V14.1243Z" fill="white"/>
</svg>
